<?xml version="1.0" encoding="UTF-8" standalone="no"?>
<!-- Created with Inkscape (http://www.inkscape.org/) -->

<svg
   xmlns:dc="http://purl.org/dc/elements/1.1/"
   xmlns:cc="http://creativecommons.org/ns#"
   xmlns:rdf="http://www.w3.org/1999/02/22-rdf-syntax-ns#"
   xmlns:svg="http://www.w3.org/2000/svg"
   xmlns="http://www.w3.org/2000/svg"
   xmlns:sodipodi="http://sodipodi.sourceforge.net/DTD/sodipodi-0.dtd"
   xmlns:inkscape="http://www.inkscape.org/namespaces/inkscape"
   id="svg3355"
   version="1.1"
   inkscape:version="0.92.2 (5c3e80d, 2017-08-06)"
   xml:space="preserve"
   width="1878.1372"
   height="632.23169"
   viewBox="0 0 1878.1372 632.23169"
   sodipodi:docname="aura.svg"
   inkscape:export-filename="D:\dev\adl\aura50.png"
   inkscape:export-xdpi="1.92"
   inkscape:export-ydpi="1.92"><metadata
     id="metadata3361"><rdf:RDF><cc:Work
         rdf:about=""><dc:format>image/svg+xml</dc:format><dc:type
           rdf:resource="http://purl.org/dc/dcmitype/StillImage" /><dc:title></dc:title></cc:Work></rdf:RDF></metadata><defs
     id="defs3359"><inkscape:perspective
       sodipodi:type="inkscape:persp3d"
       inkscape:vp_x="0 : 1250 : 1"
       inkscape:vp_y="0 : 1000 : 0"
       inkscape:vp_z="2500 : 1250 : 1"
       inkscape:persp3d-origin="1250 : 833.33333 : 1"
       id="perspective3475" /><clipPath
       clipPathUnits="userSpaceOnUse"
       id="clipPath3375"><path
         d="M 0,2000 H 2000 V 0 H 0 Z"
         id="path3377"
         inkscape:connector-curvature="0" /></clipPath></defs><sodipodi:namedview
     pagecolor="#ffffff"
     bordercolor="#666666"
     borderopacity="1"
     objecttolerance="10"
     gridtolerance="10"
     guidetolerance="10"
     inkscape:pageopacity="0"
     inkscape:pageshadow="2"
     inkscape:window-width="1920"
     inkscape:window-height="1017"
     id="namedview3357"
     showgrid="false"
     inkscape:zoom="0.18356492"
     inkscape:cx="98.722079"
     inkscape:cy="393.82903"
     inkscape:window-x="-8"
     inkscape:window-y="-8"
     inkscape:window-maximized="1"
     inkscape:current-layer="layer2"
     fit-margin-top="0"
     fit-margin-left="0"
     fit-margin-right="0"
     fit-margin-bottom="0" /><g
     id="g3363"
     inkscape:groupmode="layer"
     inkscape:label="2"
     transform="matrix(1.25,0,0,-1.25,-317.79706,1537.396)"
     style="display:inline"><path
       d="M 0,0 H 2000 V 2000 H 0 Z"
       style="fill:#444444;fill-opacity:0;fill-rule:nonzero;stroke:none"
       id="path3365"
       inkscape:connector-curvature="0" /><g
       id="g3367"
       transform="translate(439.8677,1182.3281)" /><g
       id="g3371"><g
         id="g3373"
         clip-path="url(#clipPath3375)"><g
           id="g3379"
           transform="translate(827.2085,841.2344)" /><g
           id="g3383"
           transform="translate(1175.6885,1228.6045)" /><g
           id="g3387"
           transform="translate(1559.0225,1182.3281)" /><g
           id="g3391"
           transform="translate(275.4512,794.8486)" /><g
           id="g3395"
           transform="translate(359.0005,728.75)" /><g
           id="g3399"
           transform="translate(500.0674,727.3682)" /><g
           id="g3403"
           transform="translate(573.062,793.96)" /><g
           id="g3407"
           transform="translate(656.2192,786.4629)" /><g
           id="g3411"
           transform="translate(727.4395,728.75)" /><g
           id="g3415"
           transform="translate(860.8062,728.75)" /><g
           id="g3419"
           transform="translate(967.936,786.4629)" /><g
           id="g3423"
           transform="translate(1055.7285,762.6865)" /><g
           id="g3427"
           transform="translate(1157.334,795.1436)" /><g
           id="g3431"
           transform="translate(1254.2021,794.4531)" /><g
           id="g3435"
           transform="translate(1349.9863,786.4629)" /><g
           id="g3439"
           transform="translate(1441.9238,793.96)" /><g
           id="g3443"
           transform="translate(1534.6504,795.1436)" /><g
           id="g3447"
           transform="translate(1631.5176,794.4531)" /><g
           id="g3451"
           transform="translate(1726.1182,760.8125)" /><g
           id="g3455"
           transform="translate(917.4201,1110.6539)"><path
             d="m 4.6224962,52.38829 c 0,72.693 -92.8360002,44.515 -92.8360002,44.515 0,0 -92.835996,28.178 -92.835996,-44.515 0,0 1.13,-28.812 10.195,-57.3980003 4.678,-14.7489997 6.832,-30.1689997 6.183,-45.6289997 -1.532,-36.454 1.581,-119.773 41.425,-127.243 0,0 17.516,-3.503 14.014,16.64 -2.725,15.664 -7.567,64.298 5.239,89.793 6.520996,12.98 25.038996,12.98 31.558996,-10e-4 12.807,-25.494 7.965,-74.128 5.241,-89.792 -3.504,-20.143 14.012,-16.64 14.012,-16.64 39.845,7.47 42.957,90.789 41.426,127.243 -0.649,15.46 1.504,30.88 6.1820002,45.6289997 9.066,28.5860003 10.196,57.3980003 10.196,57.3980003"
             style="opacity:0.98999999;fill:#e9e4d1;fill-opacity:1;fill-rule:nonzero;stroke:#a7854f;stroke-width:2.4000001;stroke-miterlimit:4;stroke-dasharray:none;stroke-opacity:1"
             id="path3457"
             inkscape:connector-curvature="0"
             sodipodi:nodetypes="cccccccccccccc" /></g><g
           id="g3459"
           transform="translate(794.6579,1144.5587)"><path
             d="m 4.6224962,52.38829 c 2.335,1.397 5.143,1.979 7.8919998,2.399 7.689,1.177 14.617,-3.968 22.251,-3.265 11.227,1.033 24.338,5.5 35.236,0.949 -5.364,-1.101 -10.78,-2.032 -16.031,-3.607 -2.626,-0.778 -5.07,-1.623 -7.677,-2.63 -5.81,-2.243 -11.506,-4.371 -17.706,-2.324 -3.931,1.299 -7.485,3.523 -11.283,5.173 -4.047,1.759 -8.3169998,2.759 -12.6819998,3.305"
             style="fill:#ffffff;fill-opacity:1;fill-rule:nonzero;stroke:none;stroke-width:2.4000001;stroke-miterlimit:4;stroke-dasharray:none"
             id="path3461"
             inkscape:connector-curvature="0" /></g><g
           id="g3463"
           transform="translate(768.8029,1146.0631)"><path
             d="m 4.6224962,52.38829 c 0.683,-2.688 2.002,-5.217 3.991,-7.205 1.9859998,-2.049 4.3259998,-3.655 6.8439998,-5.244 14.266,-9.001 35.826,-4.812 48.039,-17.065 -3.826,-7.378 -21.34,-3.35 -27.916,-1.947 -9.521,2.029 -19.244,6.117 -26.0299998,13.31 -4.186,4.437 -8.479,12.256 -4.928,18.151"
             style="fill:#ffffff;fill-opacity:1;fill-rule:nonzero;stroke:none;stroke-width:2.4000001;stroke-miterlimit:4;stroke-dasharray:none"
             id="path3465"
             inkscape:connector-curvature="0"
             sodipodi:nodetypes="cccccsc" /></g><g
           id="g3467"
           transform="translate(873.9543,1139.8893)"><path
             d="m 4.6224962,52.38829 c 19.4709998,2.609 29.1629998,-18.374 28.5709998,-34.666 -0.589,-16.2070003 -7.484,-31.318 -13.94,-45.903 -5.294,-11.961 -15.7399998,-29.954 -10.1579998,-43.561 -5.581,13.604 -9.62200005,28.18 -5.93,42.781 3.988,15.77 12.0409998,30.2719997 15.2059998,46.279 1.32,6.682 1.985,13.928 -0.239,20.504 -1.38,4.08 -8.012,15.303 -13.5099998,14.566"
             style="fill:#ffffff;fill-opacity:1;fill-rule:nonzero;stroke:none;stroke-width:2.4000001;stroke-miterlimit:4;stroke-dasharray:none"
             id="path3469"
             inkscape:connector-curvature="0"
             sodipodi:nodetypes="cscccccc" /></g></g></g><g
       inkscape:groupmode="layer"
       id="layer2"
       inkscape:label="Layer 1"
       style="display:inline"><g
         aria-label="AURA"
         transform="scale(1,-1)"
         style="font-style:normal;font-weight:normal;font-size:506.66665649px;line-height:1.25;font-family:sans-serif;letter-spacing:0px;word-spacing:0px;fill:#94d4cf;fill-opacity:1;stroke:none;stroke-width:0.80000001"
         id="text130"><path
           d="m 269.33485,-846.63556 156.1198,-383.28124 h 40.39062 l 156.1198,383.28124 H 571.26194 L 525.42861,-962.07827 H 365.29839 l -45.83333,115.44271 z m 175.88542,-323.69794 q -25.49479,71.6146 -48.98437,130.0521 l -14.32292,36.0938 h 126.90104 l -14.32291,-36.0938 q -23.48959,-59.5833 -48.125,-130.0521 z"
           style="font-style:normal;font-variant:normal;font-weight:normal;font-stretch:normal;font-size:586.66668701px;font-family:Corbel;-inkscape-font-specification:Corbel;fill:#94d4cf;fill-opacity:1;stroke-width:0.80000001"
           id="path1124"
           inkscape:connector-curvature="0" /><path
           d="m 828.50153,-881.01056 c 13.94097,0 26.25868,-1.62326 36.95313,-4.86979 10.88541,-3.24653 20.33854,-7.82986 28.35937,-13.75 8.02084,-5.92014 14.70487,-12.98611 20.05209,-21.19792 5.34722,-8.40278 9.45312,-17.66493 12.31771,-27.78646 1.90972,-6.30208 3.24652,-13.27257 4.01041,-20.91146 0.76389,-7.82986 1.14584,-15.37326 1.14584,-22.63021 v -172.1604 h 46.69271 v 171.01457 c 0,8.97569 -0.47743,18.33333 -1.43229,28.07292 -0.95487,9.73958 -2.48265,18.81076 -4.58334,27.21354 -3.62847,14.13195 -9.07118,27.21354 -16.32812,39.24479 -7.25695,12.03125 -16.71007,22.43924 -28.35938,31.22396 -11.64931,8.78473 -25.68577,15.65973 -42.10938,20.625 -16.23263,4.96528 -35.32985,7.44792 -57.29166,7.44792 -21.00695,0 -39.43577,-2.29167 -55.28646,-6.875 -15.8507,-4.58333 -29.50522,-10.88542 -40.96355,-18.90625 -11.26736,-8.21181 -20.52951,-17.8559 -27.78646,-28.93229 -7.25694,-11.26737 -12.89062,-23.48959 -16.90104,-36.66667 -2.86458,-9.54861 -4.96527,-19.76563 -6.30208,-30.65104 -1.14583,-10.88542 -1.71875,-21.48438 -1.71875,-31.79688 v -171.01457 h 46.69271 v 172.1604 c 0,8.59375 0.57292,17.47396 1.71875,26.64063 1.33681,8.97569 3.34201,17.1875 6.01562,24.63542 6.68403,18.52431 17.76042,33.13368 33.22917,43.82812 15.65972,10.69445 36.28472,16.04167 61.875,16.04167 z"
           style="font-style:normal;font-variant:normal;font-weight:normal;font-stretch:normal;font-size:586.66668701px;font-family:Corbel;-inkscape-font-specification:Corbel;fill:#94d4cf;fill-opacity:1;stroke-width:0.80000001"
           id="path1126"
           inkscape:connector-curvature="0"
           sodipodi:nodetypes="scscccsccsscsscssccccsccscccs" /><path
           d="m 1121.2619,-1005.3335 v 158.69794 h -46.6927 v -383.28124 h 99.4011 q 25.2083,0 42.6823,2.0052 17.7604,1.7187 32.3698,5.7292 40.1041,10.8854 61.302,37.2395 21.198,26.0677 21.198,65.3125 0,23.2032 -7.448,41.5365 -7.4479,18.3333 -20.9114,31.7969 -13.4636,13.4635 -32.3698,22.0573 -18.6198,8.5937 -41.5365,12.6041 v 1.1459 l 125.1823,163.85414 h -58.7239 l -118.0209,-158.69794 z m 0,-182.4739 v 140.3645 h 46.1198 q 21.4844,0 36.6667,-1.4322 15.1823,-1.4323 27.2135,-5.1563 24.349,-7.4479 37.5261,-23.776 13.1771,-16.3282 13.1771,-42.6823 -0.2865,-24.6355 -12.6042,-39.5313 -12.3177,-15.1823 -34.0885,-21.7708 -10.3125,-3.1511 -24.6355,-4.5834 -14.3229,-1.4322 -36.3802,-1.4322 z"
           style="font-style:normal;font-variant:normal;font-weight:normal;font-stretch:normal;font-size:586.66668701px;font-family:Corbel;-inkscape-font-specification:Corbel;fill:#94d4cf;fill-opacity:1;stroke-width:0.80000001"
           id="path1128"
           inkscape:connector-curvature="0" /><path
           d="m 1383.0848,-846.63556 156.1198,-383.28124 h 40.3907 l 156.1198,383.28124 h -50.7032 l -45.8333,-115.44271 h -160.1302 l -45.8333,115.44271 z m 175.8855,-323.69794 q -25.4948,71.6146 -48.9844,130.0521 l -14.3229,36.0938 h 126.901 l -14.3229,-36.0938 q -23.4896,-59.5833 -48.125,-130.0521 z"
           style="font-style:normal;font-variant:normal;font-weight:normal;font-stretch:normal;font-size:586.66668701px;font-family:Corbel;-inkscape-font-specification:Corbel;fill:#94d4cf;fill-opacity:1;stroke-width:0.80000001"
           id="path1130"
           inkscape:connector-curvature="0" /></g><text
         xml:space="preserve"
         style="font-style:normal;font-weight:normal;font-size:32px;line-height:1.25;font-family:sans-serif;letter-spacing:0px;word-spacing:0px;fill:#c2af91;fill-opacity:1;stroke:none;stroke-width:0.80000001"
         x="244.05536"
         y="-725.62885"
         id="text1122"
         transform="scale(1,-1)"><tspan
           sodipodi:role="line"
           id="tspan1120"
           x="244.05536"
           y="-725.62885"
           style="font-style:normal;font-variant:normal;font-weight:normal;font-stretch:normal;font-size:122.66666412px;line-height:2.25;font-family:Corbel;-inkscape-font-specification:Corbel;letter-spacing:18.93600082px;fill:#c2af91;fill-opacity:1;stroke-width:0.80000001">DENTAL LABORATORY</tspan></text>
</g></g><g
     inkscape:groupmode="layer"
     id="layer4"
     inkscape:label="3"
     transform="translate(-317.79706,-962.604)" /></svg>